# xmcd
#
# Track frame offsets:
#	150
#	17625
#	41820
#	64820
#	84800
#	98760
#	116077
#	133465
#	155632
#	177282
#	194845
#	216077
#	237995
#
# Disc length: 3477 seconds
#
# Revision: 0
# Processed by: cddbd v1.5.1PL0 Copyright (c) Steve Scherf et al.
# Submitted via: EasyCDDAExtractor 4.5.0.2
#
DISCID=bc0d930d
DTITLE=Coco Montaya - Just let go
DYEAR=1997
DGENRE=Blues
TTITLE0=Hard Love
TTITLE1=My Side Of The Fence
TTITLE2=Do What You Want To Do
TTITLE3=Beginner At The Blues
TTITLE4=Cool Like Dat
TTITLE5=Nothing's Too Good For My Baby
TTITLE6=Fear No Evil
TTITLE7=Just Let Go
TTITLE8=Never Seen You Cry Thisway Before
TTITLE9=What's Done Is Done
TTITLE10=Sending Me Angels
TTITLE11=Give It To A Good Man
TTITLE12=Mother And Daughter
EXTD=
EXTT0=
EXTT1=
EXTT2=
EXTT3=
EXTT4=
EXTT5=
EXTT6=
EXTT7=
EXTT8=
EXTT9=
EXTT10=
EXTT11=
EXTT12=
PLAYORDER=
